<?xml version="1.0" encoding="utf-8"?>
<!-- Generator: Adobe Illustrator 21.0.0, SVG Export Plug-In . SVG Version: 6.00 Build 0)  -->
<svg version="1.1" id="Layer_1" xmlns="http://www.w3.org/2000/svg" xmlns:xlink="http://www.w3.org/1999/xlink" x="0px" y="0px"
	 viewBox="0 0 141.8 128" style="enable-background:new 0 0 141.8 128;" xml:space="preserve">
<style type="text/css">
	.st0{fill:#FFFFFF;}
</style>
<path class="st0" d="M27.5,44.1l-1.1,1.1c-2.1,2.1-3.7,4.6-4.7,7.3c-4.9-3.6-11.1-4.3-15.8-1.9c-1.5-0.9-3.4-0.7-4.7,0.6
	c-1.5,1.5-1.5,4,0,5.5C2,57.5,3,57.8,3.9,57.8c1,0,2-0.4,2.7-1.1c0.9-0.9,1.3-2.2,1.1-3.5c3.9-1.8,9.1-0.8,13,2.6
	c-1.2,6.3,0.5,12.8,4.8,17.6l1.9,2.1l0.9-2.7c1.9-6.1,5.2-11.5,9.8-16.1l1.1-1.1L27.5,44.1z"/>
<path class="st0" d="M66.2,128c-11,0-22.1-4.2-30.4-12.6C24.3,104,20.3,87.3,25.1,72c2.1-6.5,5.7-12.5,10.6-17.4l1.1-1.1l60.8,60.8
	l-1.1,1.1c-0.6,0.6-1.1,1.1-1.7,1.6C86.6,124.4,76.4,128,66.2,128z M36.9,58c-4,4.3-6.9,9.3-8.7,14.9c-4.5,14.2-0.8,29.6,9.8,40.2
	c15,15,39,15.6,54.7,1.5c0.1-0.1,0.3-0.3,0.4-0.4L36.9,58z"/>
<path class="st0" d="M66.1,111.9c-6.9,0-13.8-2.6-19-7.9c-6.6-6.6-9.3-16.4-7.1-25.5c1.2-4.8,3.6-9.1,7.1-12.6l1.1-1.1l38.1,38.1
	l-1.1,1.1C79.9,109.3,73,111.9,66.1,111.9z M48.3,69.4c-2.5,2.9-4.3,6.3-5.2,9.9c-2,8,0.4,16.6,6.3,22.4c8.9,8.9,23.1,9.2,32.4,1.1
	L48.3,69.4z"/>
<path class="st0" d="M59.6,76.2l-1.1,1.1c-4.2,4.2-4.2,11.1,0,15.4c2.1,2.1,4.9,3.2,7.7,3.2s5.5-1.1,7.7-3.2l1.1-1.1L59.6,76.2z"/>
<path class="st0" d="M138.6,77.1L138.6,77.1H111V77c-0.8-12-5.9-23.3-14.4-31.8C88,36.7,76.8,31.6,64.8,30.8h-0.1V3.2l0,0l0,0
	c0-1.8-1.4-3.2-3.2-3.2s-3.2,1.4-3.2,3.2v1.6v26h-0.1c-12,0.8-23.2,5.9-31.7,14.4l-1.1,1.1l70.2,70.2l1.1-1.1
	c8.5-8.5,13.6-19.8,14.4-31.7v-0.1h26h1.6l0,0c1.8,0,3.2-1.4,3.2-3.2C141.8,78.5,140.3,77.1,138.6,77.1z M65.5,50.4
	c-2.2,2.2-5.9,2.2-8.1,0c-2.2-2.2-2.2-5.9,0-8.1c2.2-2.2,5.9-2.2,8.1,0C67.7,44.6,67.7,48.2,65.5,50.4z M99.4,84.3
	c-2.2,2.2-5.8,2.2-8.1,0c-2.2-2.2-2.2-5.9,0-8.1s5.9-2.2,8.1,0C101.7,78.5,101.7,82.1,99.4,84.3z"/>
</svg>
