<?xml version="1.0" encoding="utf-8"?>
<!-- Generator: Adobe Illustrator 21.0.0, SVG Export Plug-In . SVG Version: 6.00 Build 0)  -->
<svg version="1.1" id="Layer_1" xmlns="http://www.w3.org/2000/svg" xmlns:xlink="http://www.w3.org/1999/xlink" x="0px" y="0px"
	 viewBox="0 0 283.5 256" style="enable-background:new 0 0 283.5 256;" xml:space="preserve">
<style type="text/css">
	.st0{fill:#E51400;}
	.st1{fill:#008A00;}
</style>
<path d="M55,88.2l-2.3,2.3c-4.2,4.2-7.4,9.2-9.4,14.6c-9.8-7.3-22.2-8.7-31.7-3.8c-3-1.7-6.8-1.3-9.4,1.2c-3,3-3,8,0,11
	c1.5,1.5,3.5,2.3,5.5,2.3c2,0,4-0.8,5.5-2.3c1.9-1.9,2.6-4.5,2.1-6.9c7.9-3.6,18.2-1.7,26,5.2c-2.4,12.6,1.1,25.6,9.5,35.2l3.8,4.2
	l1.7-5.4c3.9-12.2,10.4-23,19.6-32.2l2.2-2.2L55,88.2z"/>
<path class="st0" d="M132.3,256c-22.1,0-44.1-8.5-60.9-25.2c-22.8-22.8-30.9-56.1-21.2-86.8c4.1-13,11.4-25.1,21.2-34.8l2.3-2.3
	l121.6,121.6l-2.3,2.3c-1.1,1.1-2.3,2.2-3.5,3.3C173.3,248.7,152.8,256,132.3,256z M73.7,116c-8,8.6-13.8,18.7-17.4,29.9
	c-9,28.5-1.5,59.2,19.6,80.3c29.9,29.9,77.9,31.2,109.4,3c0.3-0.3,0.6-0.5,0.9-0.8L73.7,116z"/>
<path class="st0" d="M132.3,223.8c-13.8,0-27.6-5.3-38.1-15.8c-13.3-13.2-18.7-32.8-14.2-50.9c2.3-9.5,7.2-18.3,14.2-25.2l2.3-2.3
	l76.2,76.2l-2.3,2.3C159.8,218.5,146,223.8,132.3,223.8z M96.5,138.8c-5,5.7-8.5,12.5-10.3,19.9c-3.9,16,0.9,33.2,12.5,44.9
	c17.7,17.7,46.1,18.5,64.7,2.2L96.5,138.8z"/>
<path class="st0" d="M119.2,152.3l-2.2,2.2c-8.5,8.5-8.5,22.2,0,30.7c4.2,4.2,9.8,6.4,15.3,6.4c5.6,0,11.1-2.1,15.3-6.4l2.3-2.3
	L119.2,152.3z M121.4,180.7c-5.2-5.2-5.9-13.2-2-19.1l21.1,21.1C134.6,186.6,126.6,185.9,121.4,180.7z"/>
<path class="st0" d="M140.5,182.8c-5.9,3.8-13.9,3.1-19.1-2c-5.2-5.2-5.9-13.2-2-19.1L140.5,182.8z"/>
<path class="st1" d="M277.1,154.2L277.1,154.2l-55.2,0c0-0.1,0-0.1,0-0.2c-1.5-24-11.8-46.5-28.8-63.5c-17-17-39.6-27.2-63.5-28.8
	c-0.1,0-0.2,0-0.2,0V6.4h0c0,0,0,0,0,0c0-3.5-2.9-6.4-6.4-6.4c-3.5,0-6.4,2.9-6.4,6.4l0,3.2l0,52c-0.1,0-0.2,0-0.2,0
	c-23.9,1.6-46.5,11.8-63.5,28.8l-2.3,2.3L190.8,233l2.3-2.3c17-17,27.2-39.6,28.8-63.5c0-0.1,0-0.2,0-0.2l52,0h3.2v0
	c3.5,0,6.4-2.9,6.4-6.4C283.5,157.1,280.7,154.2,277.1,154.2z M131,100.8c-4.5,4.5-11.7,4.5-16.2,0c-4.5-4.5-4.5-11.7,0-16.2
	c4.5-4.5,11.7-4.5,16.2,0C135.5,89.1,135.5,96.3,131,100.8z M198.9,168.7c-4.4,4.5-11.7,4.5-16.1,0c-4.5-4.5-4.5-11.7,0-16.2
	c4.5-4.4,11.7-4.4,16.1,0C203.3,157,203.3,164.2,198.9,168.7z"/>
</svg>
