<?xml version="1.0" encoding="utf-8"?>
<!-- Generator: Adobe Illustrator 21.0.0, SVG Export Plug-In . SVG Version: 6.00 Build 0)  -->
<svg version="1.1" id="Layer_1" xmlns="http://www.w3.org/2000/svg" xmlns:xlink="http://www.w3.org/1999/xlink" x="0px" y="0px"
	 viewBox="0 0 567.1 512" style="enable-background:new 0 0 567.1 512;" xml:space="preserve">
<style type="text/css">
	.st0{fill:#E51400;}
	.st1{fill:#008A00;}
</style>
<path d="M110,176.3l-4.6,4.6c-8.4,8.4-14.7,18.3-18.9,29.3c-19.5-14.6-44.3-17.3-63.3-7.6c-5.9-3.4-13.6-2.7-18.7,2.4
	c-6.1,6.1-6.1,15.9,0,22c3,3,7,4.5,11,4.5c4,0,8-1.5,11-4.5c3.8-3.8,5.2-9,4.3-13.8c15.7-7.1,36.4-3.3,52,10.5
	c-4.9,25.1,2.1,51.2,19.1,70.5l7.6,8.5l3.4-10.8c7.7-24.5,20.8-46.1,39.2-64.4l4.5-4.5L110,176.3z"/>
<path class="st0" d="M264.6,512c-44.1,0-88.2-16.9-121.7-50.4C97.2,415.9,81,349.4,100.5,287.9c8.2-26.1,22.8-50.1,42.3-69.6
	l4.5-4.5L390.7,457l-4.5,4.5c-2.3,2.3-4.6,4.5-6.9,6.6C346.6,497.4,305.6,512,264.6,512z M147.5,232c-16,17.3-27.6,37.4-34.7,59.8
	c-18.1,56.9-3.1,118.5,39.2,160.7c59.8,59.8,155.9,62.5,218.7,6c0.6-0.5,1.2-1,1.8-1.6L147.5,232z"/>
<path class="st0" d="M264.5,447.6c-27.6,0-55.2-10.5-76.2-31.5c-26.5-26.5-37.4-65.5-28.4-101.9c4.6-19,14.5-36.5,28.4-50.5l4.5-4.5
	l152.3,152.3l-4.5,4.5C319.7,437.1,292.1,447.6,264.5,447.6z M193,277.5c-10,11.4-17.1,25.1-20.6,39.7c-7.9,32,1.7,66.4,25,89.7
	c35.5,35.5,92.2,36.9,129.5,4.4L193,277.5z"/>
<path class="st0" d="M238.3,304.7l-4.5,4.5c-16.9,17-16.9,44.5,0,61.4c8.4,8.4,19.6,12.7,30.7,12.7c11.1,0,22.2-4.3,30.7-12.7
	l4.6-4.6L238.3,304.7z M242.9,361.5c-10.3-10.3-11.7-26.3-4.1-38.2l42.2,42.2C269.2,373.2,253.2,371.8,242.9,361.5z"/>
<path class="st0" d="M281.1,365.6c-11.8,7.6-27.8,6.3-38.2-4.1c-10.3-10.3-11.7-26.3-4.1-38.2L281.1,365.6z"/>
<path class="st1" d="M554.2,308.4L554.2,308.4l-110.5,0c0-0.1,0-0.3,0-0.4c-3.1-47.9-23.5-93.1-57.6-127.1
	c-34.1-34-79.2-54.5-127-57.6c-0.2,0-0.3,0-0.5,0V12.9h0c0,0,0,0,0,0c0-7.1-5.8-12.8-12.8-12.8C238.7,0,233,5.8,233,12.8l0,6.4
	l0,103.9c-0.2,0-0.3,0-0.5,0c-47.8,3.2-93,23.7-127,57.6l-4.6,4.6l280.7,280.7l4.6-4.6c34-34,54.5-79.1,57.6-127c0-0.2,0-0.3,0-0.5
	l104,0h6.5v0c7.1,0,12.8-5.8,12.8-12.8C567.1,314.1,561.3,308.4,554.2,308.4z M262,201.6c-8.9,8.9-23.4,8.9-32.3,0
	c-8.9-8.9-8.9-23.4,0-32.3c8.9-8.9,23.4-8.9,32.3,0C270.9,178.2,270.9,192.7,262,201.6z M397.8,337.4c-8.9,8.9-23.3,8.9-32.3,0
	c-8.9-8.9-8.9-23.4,0-32.3c8.9-8.9,23.4-8.9,32.3,0C406.7,314,406.7,328.4,397.8,337.4z"/>
</svg>
