<?xml version="1.0" encoding="utf-8"?>
<!-- Generator: Adobe Illustrator 21.0.0, SVG Export Plug-In . SVG Version: 6.00 Build 0)  -->
<svg version="1.1" id="Layer_1" xmlns="http://www.w3.org/2000/svg" xmlns:xlink="http://www.w3.org/1999/xlink" x="0px" y="0px"
	 viewBox="0 0 273.4 299.8" style="enable-background:new 0 0 273.4 299.8;" xml:space="preserve">
<path d="M73.2,64.6l-1.7,1.7c-3.1,3.1-5.4,6.7-6.9,10.7c-7.2-5.3-16.2-6.4-23.2-2.8c-2.2-1.3-5-1-6.9,0.9c-2.2,2.2-2.2,5.8,0,8
	c1.1,1.1,2.6,1.7,4,1.7c1.5,0,2.9-0.6,4-1.7c1.4-1.4,1.9-3.3,1.6-5.1c5.8-2.6,13.4-1.2,19.1,3.9c-1.8,9.2,0.8,18.7,6.9,25.7l2.8,3.1
	l1.3-4c2.8-9,7.6-16.9,14.3-23.6l1.6-1.6L73.2,64.6z"/>
<path d="M129.8,187.5c-16.2,0-32.3-6.2-44.6-18.5c-16.7-16.7-22.6-41.1-15.5-63.6c3-9.5,8.4-18.4,15.5-25.5l1.7-1.7l89.1,89.1
	l-1.7,1.7c-0.8,0.8-1.7,1.6-2.5,2.4C159.8,182.2,144.8,187.5,129.8,187.5z M86.9,85c-5.9,6.3-10.1,13.7-12.7,21.9
	c-6.6,20.8-1.1,43.4,14.3,58.8c21.9,21.9,57.1,22.9,80.1,2.2c0.2-0.2,0.4-0.4,0.6-0.6L86.9,85z"/>
<path d="M129.7,163.9c-10.1,0-20.2-3.8-27.9-11.5c-9.7-9.7-13.7-24-10.4-37.3c1.7-7,5.3-13.4,10.4-18.5l1.7-1.7l55.8,55.8l-1.7,1.7
	C149.9,160.1,139.8,163.9,129.7,163.9z M103.6,101.6c-3.7,4.2-6.3,9.2-7.6,14.6c-2.9,11.7,0.6,24.3,9.2,32.9
	c13,13,33.8,13.5,47.4,1.6L103.6,101.6z"/>
<path d="M120.2,111.6l-1.6,1.6c-6.2,6.2-6.2,16.3,0,22.5c3.1,3.1,7.2,4.7,11.2,4.7s8.1-1.6,11.2-4.7l1.7-1.7L120.2,111.6z"/>
<path d="M235.8,122.3L235.8,122.3c2.6,0,4.7-2.1,4.7-4.7c0-2.6-2.1-4.7-4.7-4.7l0,0v0H193c0.3,3.1,0.3,6.3,0,9.4l40.4,0L235.8,122.3
	L235.8,122.3z"/>
<path d="M127.6,4.7c0-2.6-2.1-4.7-4.7-4.7c-2.6,0-4.7,2.1-4.7,4.7l0,2.3l0,40.4c3.1-0.2,6.3-0.2,9.4,0V4.7L127.6,4.7
	C127.6,4.7,127.6,4.7,127.6,4.7z"/>
<path d="M195.4,112.8c-1.1-17.5-8.6-34.1-21.1-46.5c-12.5-12.5-29-19.9-46.5-21.1c-3.2-0.2-6.5-0.2-9.8,0
	c-17.5,1.2-34.1,8.7-46.5,21.1l-1.7,1.7l102.8,102.8l1.7-1.7c12.5-12.4,19.9-29,21.1-46.5C195.6,119.3,195.6,116,195.4,112.8z
	 M128.8,73.8c-3.3,3.3-8.6,3.3-11.8,0c-3.3-3.3-3.3-8.6,0-11.8c3.3-3.3,8.6-3.3,11.8,0C132.1,65.3,132.1,70.6,128.8,73.8z
	 M178.5,123.5c-3.2,3.3-8.5,3.3-11.8,0c-3.3-3.3-3.3-8.6,0-11.8c3.3-3.3,8.6-3.3,11.8,0C181.8,115,181.8,120.3,178.5,123.5z"/>
<g>
	<path d="M7.1,230.8v11.5h18.6v6.5H7.1v17.2H0v-41.9h27.9l-0.1,6.6H7.1z"/>
	<path d="M35.6,227.9c-0.8-0.8-1.3-1.8-1.3-3c0-1.2,0.4-2.2,1.3-3c0.8-0.8,1.8-1.3,3-1.3c1.2,0,2.2,0.4,3,1.3c0.8,0.8,1.3,1.8,1.3,3
		c0,1.2-0.4,2.2-1.3,3c-0.8,0.8-1.8,1.3-3,1.3C37.5,229.1,36.5,228.7,35.6,227.9z M41.9,266.1h-6.7v-31.9h6.7V266.1z"/>
	<path d="M58.3,248.8v17.2h-6.7v-31.9h6.7v5.8c1.1-2,2.6-3.5,4.5-4.6c1.9-1.1,3.9-1.7,6.1-1.7c3.6,0,6.5,1.1,8.7,3.3
		c2.2,2.2,3.3,5.4,3.3,9.5v19.5h-6.7v-17.5c0-5.9-2.4-8.8-7.3-8.8c-2.3,0-4.3,0.8-6.1,2.3C59.2,243.6,58.3,245.9,58.3,248.8z"/>
	<path d="M92.8,262c-3-3-4.5-7-4.5-12c0-4.9,1.5-8.9,4.6-11.9c3.1-3,6.7-4.4,11-4.4c4.3,0,7.7,1.8,10.3,5.4v-17.5h6.7v44.4h-6.7
		v-4.8c-2.5,3.5-6.1,5.3-10.8,5.3C99.3,266.6,95.8,265.1,92.8,262z M95,250.3c0,3.1,1,5.5,2.9,7.5c2,1.9,4.3,2.9,6.9,2.9
		c2.6,0,4.9-1,6.7-2.9c1.8-1.9,2.8-4.4,2.8-7.5c0-3-0.9-5.6-2.8-7.6c-1.8-2-4.1-3.1-6.8-3.1s-5,1-6.9,3.1
		C96,244.7,95,247.3,95,250.3z"/>
	<path d="M149.9,266.1h-18.3v-41.9h16.3c2.8,0,5.3,0.3,7.3,1c2.1,0.7,3.6,1.6,4.6,2.8c1.9,2.2,2.9,4.6,2.9,7.3c0,3.3-1,5.7-3.1,7.3
		c-0.8,0.6-1.3,0.9-1.6,1c-0.3,0.1-0.8,0.4-1.5,0.7c2.6,0.6,4.7,1.7,6.2,3.5c1.5,1.8,2.3,4,2.3,6.6c0,2.9-1,5.5-3,7.7
		C159.6,264.8,155.6,266.1,149.9,266.1z M138.6,241.6h9c5.1,0,7.7-1.7,7.7-5.2c0-2-0.6-3.4-1.9-4.3c-1.2-0.9-3.2-1.3-5.8-1.3h-9
		V241.6z M138.6,259.6h11.1c2.6,0,4.6-0.4,6-1.2c1.4-0.8,2.1-2.4,2.1-4.6c0-3.7-3-5.6-8.9-5.6h-10.2V259.6z"/>
	<path d="M195.1,251.5v-17.3h6.7v31.9h-6.7v-5.8c-1.1,2-2.6,3.5-4.5,4.6c-1.9,1.1-3.9,1.7-6.1,1.7c-3.6,0-6.5-1.1-8.7-3.3
		c-2.2-2.2-3.3-5.4-3.3-9.5v-19.5h6.7v17.5c0,5.9,2.4,8.8,7.3,8.8c2.3,0,4.3-0.8,6.1-2.3C194.3,256.7,195.1,254.4,195.1,251.5z"/>
	<path d="M241,234.2V262c0,5.6-1.5,9.9-4.6,12.7c-3.1,2.8-7,4.2-11.8,4.2c-4.8,0-9.1-1.5-13-4.5l3.2-5.1c3.1,2.4,6.3,3.5,9.4,3.5
		c3.2,0,5.7-0.8,7.5-2.5c1.9-1.6,2.8-4.3,2.8-7.8v-4.1c-1,1.9-2.4,3.4-4.3,4.5c-1.9,1.1-3.9,1.7-6.3,1.7c-4.2,0-7.7-1.5-10.4-4.4
		c-2.7-3-4.1-6.6-4.1-11c0-4.4,1.4-8.1,4.1-11c2.7-3,6.2-4.4,10.4-4.4c4.2,0,7.6,1.7,10.3,5.2v-4.7H241z M216.2,248.9
		c0,2.6,0.8,4.9,2.4,6.8c1.6,1.9,3.8,2.8,6.5,2.8s5-0.9,6.6-2.8c1.7-1.8,2.5-4.1,2.5-6.9c0-2.7-0.9-5.1-2.6-6.9
		c-1.7-1.9-3.9-2.8-6.6-2.8c-2.7,0-4.9,1-6.5,2.9C217,244,216.2,246.3,216.2,248.9z"/>
	<path d="M273.4,256.6c0,3-1.1,5.5-3.3,7.3c-2.2,1.8-5,2.7-8.4,2.7c-2.3,0-4.7-0.4-7.2-1.3c-2.5-0.8-4.7-2-6.6-3.5l3.2-5.2
		c3.7,2.8,7.3,4.2,10.8,4.2c1.5,0,2.7-0.3,3.6-1c0.9-0.7,1.3-1.6,1.3-2.7c0-1.6-2.1-3-6.3-4.3c-0.3-0.1-0.6-0.2-0.7-0.2
		c-6.6-1.8-9.9-4.8-9.9-9c0-3,1.1-5.3,3.4-7.1c2.3-1.8,5.3-2.7,9-2.7c3.7,0,7.1,1.1,10.4,3.2l-2.5,5c-2.6-1.7-5.4-2.6-8.4-2.6
		c-1.6,0-2.9,0.3-3.9,0.9s-1.5,1.4-1.5,2.6c0,1,0.5,1.8,1.6,2.3c0.7,0.4,1.7,0.7,3,1c1.3,0.3,2.4,0.6,3.4,1c1,0.3,2,0.7,2.9,1.1
		c0.9,0.4,1.9,1,3,1.7C272.3,251.3,273.4,253.5,273.4,256.6z"/>
</g>
<g>
	<path d="M81.8,296l-1.7,3.8h-3l7.4-16.8h3l7.4,16.8h-3l-1.7-3.8H81.8z M89.1,293.4l-3-6.9l-3,6.9H89.1z"/>
	<path d="M109.8,283.1h2.8v16.8h-3.1l-9.5-12.2v12.2h-2.8v-16.8h2.8l9.7,12.5V283.1z"/>
	<path d="M130,285.3c1.6,1.5,2.4,3.5,2.4,6.1s-0.8,4.7-2.4,6.2c-1.6,1.5-4,2.3-7.2,2.3h-5.6v-16.8h5.8
		C126.1,283.1,128.4,283.8,130,285.3z M129.6,291.4c0-3.8-2.2-5.8-6.6-5.8h-2.8v11.5h3.1c2,0,3.6-0.5,4.7-1.5
		C129,294.7,129.6,293.3,129.6,291.4z"/>
	<path d="M149.5,288.5c0,2.8-1.2,4.5-3.6,5.2l4.4,6.1h-3.6l-4-5.6h-3.7v5.6h-2.8v-16.8h6.2c2.6,0,4.4,0.4,5.5,1.3
		C148.9,285.2,149.5,286.6,149.5,288.5z M145.7,290.9c0.6-0.5,0.9-1.3,0.9-2.4c0-1.1-0.3-1.8-0.9-2.3c-0.6-0.4-1.6-0.6-3.2-0.6h-3.6
		v6h3.5C144,291.6,145.1,291.4,145.7,290.9z"/>
	<path d="M167.6,297.5c-1.7,1.7-3.8,2.5-6.3,2.5c-2.5,0-4.6-0.8-6.3-2.5c-1.7-1.7-2.5-3.7-2.5-6.2c0-2.5,0.8-4.5,2.5-6.2
		c1.7-1.7,3.8-2.5,6.3-2.5c2.5,0,4.6,0.8,6.3,2.5c1.7,1.7,2.5,3.7,2.5,6.2C170.1,293.8,169.3,295.9,167.6,297.5z M165.5,287
		c-1.1-1.2-2.5-1.8-4.2-1.8c-1.7,0-3.1,0.6-4.2,1.8c-1.1,1.2-1.7,2.6-1.7,4.3c0,1.7,0.6,3.1,1.7,4.3c1.1,1.2,2.5,1.8,4.2,1.8
		c1.7,0,3.1-0.6,4.2-1.8c1.1-1.2,1.7-2.6,1.7-4.3C167.2,289.6,166.6,288.2,165.5,287z"/>
	<path d="M173.7,283.1h2.8v16.8h-2.8V283.1z"/>
	<path d="M193.9,285.3c1.6,1.5,2.4,3.5,2.4,6.1s-0.8,4.7-2.4,6.2c-1.6,1.5-4,2.3-7.2,2.3h-5.6v-16.8h5.8
		C189.9,283.1,192.3,283.8,193.9,285.3z M193.4,291.4c0-3.8-2.2-5.8-6.6-5.8H184v11.5h3.1c2,0,3.6-0.5,4.7-1.5
		C192.9,294.7,193.4,293.3,193.4,291.4z"/>
</g>
</svg>
