<?xml version="1.0" encoding="utf-8"?>
<!-- Generator: Adobe Illustrator 21.0.0, SVG Export Plug-In . SVG Version: 6.00 Build 0)  -->
<svg version="1.1" id="Layer_1" xmlns="http://www.w3.org/2000/svg" xmlns:xlink="http://www.w3.org/1999/xlink" x="0px" y="0px"
	 viewBox="0 0 604 200" style="enable-background:new 0 0 604 200;" xml:space="preserve">
<style type="text/css">
	.st0{fill:#FFFFFF;}
</style>
<path class="st0" d="M43,68.9l-1.8,1.8c-3.3,3.3-5.7,7.2-7.4,11.5c-7.6-5.7-17.3-6.8-24.7-3c-2.3-1.3-5.3-1-7.3,0.9
	c-2.4,2.4-2.4,6.2,0,8.6c1.2,1.2,2.7,1.8,4.3,1.8c1.6,0,3.1-0.6,4.3-1.8c1.5-1.5,2-3.5,1.7-5.4c6.2-2.8,14.3-1.3,20.3,4.2
	c-1.9,9.8,0.8,19.9,7.4,27.4l3,3.3l1.3-4.2c3-9.6,8.1-18,15.3-25.2l1.8-1.8L43,68.9z"/>
<path class="st0" d="M103.4,200c-17.2,0-34.5-6.6-47.6-19.7c-17.8-17.8-24.2-43.8-16.5-67.8c3.2-10.2,8.9-19.6,16.5-27.2l1.8-1.8
	l95,95l-1.8,1.8c-0.9,0.9-1.8,1.7-2.7,2.6C135.4,194.3,119.4,200,103.4,200z M57.6,90.6c-6.2,6.7-10.8,14.6-13.6,23.4
	c-7.1,22.2-1.2,46.3,15.3,62.8c23.4,23.4,60.9,24.4,85.4,2.4c0.2-0.2,0.5-0.4,0.7-0.6L57.6,90.6z"/>
<path class="st0" d="M103.3,174.8c-10.8,0-21.6-4.1-29.8-12.3c-10.4-10.4-14.6-25.6-11.1-39.8c1.8-7.4,5.6-14.3,11.1-19.7l1.8-1.8
	l59.5,59.5l-1.8,1.8C124.9,170.7,114.1,174.8,103.3,174.8z M75.4,108.4c-3.9,4.5-6.7,9.8-8.1,15.5c-3.1,12.5,0.7,25.9,9.8,35
	c13.9,13.9,36,14.4,50.6,1.7L75.4,108.4z"/>
<path class="st0" d="M93.1,119l-1.8,1.8c-6.6,6.6-6.6,17.4,0,24c3.3,3.3,7.6,5,12,5s8.7-1.7,12-5l1.8-1.8L93.1,119z"/>
<path class="st0" d="M216.5,130.5L216.5,130.5c2.8,0,5-2.2,5-5c0-2.8-2.2-5-5-5l0,0v0h-45.7c0.3,3.3,0.3,6.7,0,10.1l43.1,0
	L216.5,130.5L216.5,130.5z"/>
<path class="st0" d="M101,5c0-2.8-2.2-5-5-5c-2.8,0-5,2.2-5,5l0,2.5l0,43.1c3.3-0.2,6.7-0.2,10.1,0V5L101,5C101,5,101,5,101,5z"/>
<path class="st0" d="M173.3,120.3c-1.2-18.7-9.2-36.4-22.5-49.6c-13.3-13.3-30.9-21.3-49.6-22.5c-3.5-0.3-7-0.3-10.4,0
	c-18.7,1.2-36.3,9.2-49.6,22.5l-1.8,1.8l109.6,109.6l1.8-1.8c13.3-13.3,21.3-30.9,22.5-49.6C173.6,127.2,173.6,123.7,173.3,120.3z
	 M102.3,78.8c-3.5,3.5-9.1,3.5-12.6,0c-3.5-3.5-3.5-9.1,0-12.6c3.5-3.5,9.1-3.5,12.6,0C105.8,69.6,105.8,75.3,102.3,78.8z
	 M155.4,131.8c-3.5,3.5-9.1,3.5-12.6,0c-3.5-3.5-3.5-9.1,0-12.6c3.5-3.5,9.1-3.5,12.6,0C158.9,122.6,158.9,128.3,155.4,131.8z"/>
<g>
	<path class="st0" d="M265.6,75.9v14.6h23.6v8.3h-23.6v21.9h-9V67.5h35.5l-0.1,8.4H265.6z"/>
	<path class="st0" d="M301.9,72.2c-1.1-1.1-1.6-2.3-1.6-3.8c0-1.5,0.5-2.7,1.6-3.8c1.1-1.1,2.3-1.6,3.8-1.6c1.5,0,2.7,0.5,3.8,1.6
		c1.1,1.1,1.6,2.3,1.6,3.8c0,1.5-0.5,2.7-1.6,3.8c-1.1,1.1-2.3,1.6-3.8,1.6C304.2,73.8,302.9,73.3,301.9,72.2z M309.9,120.7h-8.5
		V80.3h8.5V120.7z"/>
	<path class="st0" d="M330.7,98.8v21.9h-8.5V80.3h8.5v7.4c1.4-2.5,3.3-4.4,5.7-5.9c2.4-1.4,5-2.1,7.8-2.1c4.6,0,8.3,1.4,11.1,4.2
		c2.8,2.8,4.2,6.8,4.2,12.1v24.8h-8.5V98.5c0-7.5-3.1-11.2-9.3-11.2c-2.9,0-5.5,1-7.7,2.9C331.8,92.2,330.7,95.1,330.7,98.8z"/>
	<path class="st0" d="M374.5,115.6c-3.8-3.9-5.7-8.9-5.7-15.2c0-6.3,2-11.3,5.9-15.1c3.9-3.8,8.6-5.6,14-5.6c5.4,0,9.8,2.3,13.1,6.8
		V64.3h8.5v56.5h-8.5v-6.1c-3.1,4.5-7.7,6.7-13.8,6.7C382.7,121.3,378.3,119.4,374.5,115.6z M377.3,100.7c0,3.9,1.2,7,3.7,9.5
		c2.5,2.4,5.4,3.7,8.8,3.7s6.2-1.2,8.5-3.7c2.3-2.5,3.5-5.6,3.5-9.5c0-3.9-1.2-7.1-3.5-9.7c-2.3-2.6-5.2-3.9-8.6-3.9
		s-6.3,1.3-8.8,3.9S377.3,96.8,377.3,100.7z"/>
	<path class="st0" d="M447,120.7h-23.3V67.5h20.7c3.6,0,6.7,0.4,9.3,1.3c2.6,0.9,4.6,2,5.8,3.5c2.4,2.7,3.7,5.8,3.7,9.3
		c0,4.2-1.3,7.3-4,9.3c-1,0.7-1.6,1.2-2,1.3c-0.4,0.2-1,0.5-1.9,0.9c3.3,0.7,5.9,2.2,7.9,4.5c2,2.3,2.9,5.1,2.9,8.4
		c0,3.7-1.3,7-3.8,9.8C459.4,119.1,454.2,120.7,447,120.7z M432.7,89.6h11.4c6.5,0,9.7-2.2,9.7-6.6c0-2.5-0.8-4.4-2.4-5.5
		c-1.6-1.1-4-1.7-7.3-1.7h-11.5V89.6z M432.7,112.4h14.1c3.3,0,5.8-0.5,7.6-1.6c1.7-1,2.6-3,2.6-5.9c0-4.7-3.8-7.1-11.3-7.1h-12.9
		V112.4z"/>
	<path class="st0" d="M504.5,102.2V80.3h8.5v40.5h-8.5v-7.4c-1.4,2.5-3.3,4.4-5.7,5.9c-2.4,1.4-5,2.1-7.8,2.1
		c-4.6,0-8.3-1.4-11.1-4.2c-2.8-2.8-4.2-6.8-4.2-12.1V80.3h8.5v22.2c0,7.5,3.1,11.2,9.3,11.2c2.9,0,5.5-1,7.7-2.9
		C503.4,108.8,504.5,105.9,504.5,102.2z"/>
	<path class="st0" d="M562.8,80.3v35.3c0,7.2-1.9,12.5-5.8,16.1c-3.9,3.6-8.9,5.4-15,5.4c-6.1,0-11.6-1.9-16.5-5.7l4-6.5
		c4,3,8,4.5,12,4.5c4,0,7.2-1,9.6-3.1c2.4-2.1,3.5-5.4,3.5-10v-5.2c-1.3,2.4-3.1,4.3-5.4,5.7c-2.4,1.4-5,2.1-8,2.1
		c-5.4,0-9.8-1.9-13.2-5.6c-3.5-3.8-5.2-8.4-5.2-14c0-5.6,1.7-10.2,5.2-14c3.4-3.8,7.8-5.6,13.2-5.6c5.4,0,9.7,2.2,13.1,6.6v-6
		H562.8z M531.2,98.9c0,3.3,1,6.2,3.1,8.6c2.1,2.4,4.8,3.6,8.3,3.6c3.5,0,6.3-1.2,8.4-3.5c2.2-2.3,3.2-5.2,3.2-8.7
		c0-3.5-1.1-6.4-3.3-8.8c-2.2-2.4-5-3.6-8.4-3.6c-3.5,0-6.2,1.2-8.3,3.7C532.2,92.7,531.2,95.6,531.2,98.9z"/>
	<path class="st0" d="M604,108.6c0,3.9-1.4,6.9-4.2,9.2c-2.8,2.3-6.4,3.5-10.7,3.5c-2.9,0-6-0.5-9.2-1.6c-3.2-1.1-6-2.6-8.4-4.5
		l4.1-6.6c4.7,3.6,9.3,5.3,13.7,5.3c1.9,0,3.4-0.4,4.6-1.3c1.1-0.9,1.7-2,1.7-3.4c0-2-2.7-3.9-8.1-5.5c-0.4-0.2-0.7-0.3-0.9-0.3
		c-8.4-2.3-12.6-6.1-12.6-11.4c0-3.8,1.5-6.8,4.4-9c2.9-2.3,6.7-3.4,11.4-3.4c4.7,0,9.1,1.4,13.2,4.1l-3.2,6.3
		c-3.3-2.2-6.9-3.3-10.7-3.3c-2,0-3.7,0.4-4.9,1.1c-1.3,0.7-1.9,1.8-1.9,3.3c0,1.3,0.7,2.3,2,2.9c0.9,0.5,2.2,0.9,3.8,1.3
		c1.6,0.4,3.1,0.8,4.4,1.2c1.3,0.4,2.5,0.9,3.7,1.4c1.2,0.5,2.5,1.2,3.8,2.1C602.6,101.9,604,104.8,604,108.6z"/>
</g>
<g>
	<path class="st0" d="M356.9,154.5l-2.2,5.1h-4l9.9-22.4h4l9.9,22.4h-4l-2.2-5.1H356.9z M366.6,151l-4.1-9.2l-4.1,9.2H366.6z"/>
	<path class="st0" d="M394.3,137.2h3.8v22.4H394l-12.7-16.3v16.3h-3.8v-22.4h3.8l13,16.7V137.2z"/>
	<path class="st0" d="M421.2,140.1c2.2,2,3.2,4.7,3.2,8.1s-1,6.2-3.1,8.3c-2.1,2-5.3,3-9.6,3h-7.4v-22.4h7.7
		C416,137.2,419,138.2,421.2,140.1z M420.6,148.4c0-5.1-2.9-7.7-8.8-7.7H408V156h4.2c2.7,0,4.8-0.6,6.2-1.9
		C419.9,152.8,420.6,150.9,420.6,148.4z"/>
	<path class="st0" d="M447.2,144.5c0,3.7-1.6,6-4.8,7l5.9,8.1h-4.8l-5.3-7.5h-5v7.5h-3.8v-22.4h8.3c3.4,0,5.9,0.6,7.3,1.7
		C446.4,140.1,447.2,141.9,447.2,144.5z M442.1,147.7c0.8-0.7,1.2-1.7,1.2-3.2c0-1.5-0.4-2.5-1.2-3c-0.8-0.5-2.2-0.8-4.2-0.8h-4.8v8
		h4.7C439.9,148.6,441.4,148.3,442.1,147.7z"/>
	<path class="st0" d="M471.3,156.5c-2.3,2.2-5.1,3.3-8.4,3.3c-3.3,0-6.1-1.1-8.4-3.3c-2.3-2.2-3.4-5-3.4-8.3s1.1-6,3.4-8.3
		c2.3-2.2,5.1-3.3,8.4-3.3c3.3,0,6.1,1.1,8.4,3.3c2.3,2.2,3.4,5,3.4,8.3S473.6,154.3,471.3,156.5z M468.5,142.5
		c-1.5-1.6-3.4-2.4-5.6-2.4c-2.2,0-4.1,0.8-5.6,2.4c-1.5,1.6-2.3,3.5-2.3,5.7s0.8,4.2,2.3,5.7c1.5,1.6,3.4,2.4,5.6,2.4
		c2.2,0,4.1-0.8,5.6-2.4c1.5-1.6,2.3-3.5,2.3-5.7S470.1,144.1,468.5,142.5z"/>
	<path class="st0" d="M479.5,137.2h3.8v22.4h-3.8V137.2z"/>
	<path class="st0" d="M506.4,140.1c2.2,2,3.2,4.7,3.2,8.1s-1,6.2-3.1,8.3c-2.1,2-5.3,3-9.6,3h-7.4v-22.4h7.7
		C501.1,137.2,504.2,138.2,506.4,140.1z M505.8,148.4c0-5.1-2.9-7.7-8.8-7.7h-3.8V156h4.2c2.7,0,4.8-0.6,6.2-1.9
		C505.1,152.8,505.8,150.9,505.8,148.4z"/>
</g>
</svg>
